<svg width="48" height="48" viewBox="0 0 48 48" fill="none" xmlns="http://www.w3.org/2000/svg">
<circle cx="24" cy="24" r="22.5" stroke="#2E9FF5" stroke-width="3"/>
<path d="M31.3613 21.7364L24.4863 28.6114C24.4225 28.6753 24.3466 28.7261 24.2632 28.7607C24.1797 28.7952 24.0902 28.8131 23.9999 28.8131C23.9095 28.8131 23.8201 28.7952 23.7366 28.7607C23.6532 28.7261 23.5773 28.6753 23.5135 28.6114L16.6385 21.7364C16.5095 21.6074 16.437 21.4325 16.437 21.25C16.437 21.0676 16.5095 20.8926 16.6385 20.7636C16.7675 20.6346 16.9425 20.5621 17.1249 20.5621C17.3073 20.5621 17.4823 20.6346 17.6113 20.7636L23.9999 27.1531L30.3885 20.7636C30.4524 20.6997 30.5282 20.6491 30.6117 20.6145C30.6951 20.5799 30.7846 20.5621 30.8749 20.5621C30.9652 20.5621 31.0547 20.5799 31.1381 20.6145C31.2216 20.6491 31.2974 20.6997 31.3613 20.7636C31.4252 20.8275 31.4758 20.9033 31.5104 20.9868C31.545 21.0702 31.5628 21.1597 31.5628 21.25C31.5628 21.3404 31.545 21.4298 31.5104 21.5133C31.4758 21.5967 31.4252 21.6725 31.3613 21.7364Z" fill="#2E9FF5"/>
</svg>
